<svg width="600" height="600" xmlns="http://www.w3.org/2000/svg">
  <defs>
    <mask id="hole">
      <rect width="100%" height="100%" fill="white"/>
      <circle cx="400" cy="250" r="200" stroke="black"></circle>
    </mask>
    <clipPath id="hole1">
      <circle cx="300" cy="300" r="275" stroke-width="5"></circle>
    </clipPath>
    <g id="ray">
      <rect width="32" height="60" rx="16" fill="#FFFA1E" stroke="black" stroke-width="4"/>
    </g>
  </defs>  
  <circle cx="300" cy="300" r="275" stroke="black" fill="#C9C9C9" stroke-width="5"></circle>
  <circle cx="480" cy="230" r="275" stroke="black" fill="#737373" stroke-width="5" clip-path="url(#hole1)"></circle>
  <circle cx="300" cy="300" r="275" stroke="black" fill="#A000" stroke-width="5"></circle>
  <circle cx="300" cy="300" r="180" stroke="black" fill="#FFFA1E" stroke-width="5"></circle>

  <use href="#ray"  x="282" y="40"></use>
  <!--use href="#ray" x="284" y = "40" transform="rotate(45)" transform-origin="300 300"></use-->
  <use href="#ray" x="408" y = "-260" transform="rotate(45)" ></use>

  <!--use href="#ray" x="284" y = "40" transform="rotate(90)" transform-origin="300 300"></use-->
  <use href="#ray" x="282" y = "-560" transform="rotate(90)"></use>

  <!--use href="#ray" x="284" y = "40" transform="rotate(135)" transform-origin="300 300"></use-->
  <use href="#ray" x="-16" y = "-684" transform="rotate(135)"></use>

  <!--use href="#ray" x="284" y = "40" transform="rotate(180)" transform-origin="300 300"></use-->
  <use href="#ray" x="-314" y = "-560" transform="rotate(180)"></use>

  <!--use href="#ray" x="284" y = "40" transform="rotate(225)" transform-origin="300 300"></use-->
  <use href="#ray" x="-440" y = "-260" transform="rotate(225)"></use>

  <!--use href="#ray" x="284" y = "40" transform="rotate(270)" transform-origin="300 300"></use-->
  <use href="#ray" x="282" y = "-100" transform="rotate(90)"></use>
  
  <!--use href="#ray" x="284" y = "40" transform="rotate(315)" transform-origin="300 300"></use-->
  <use href="#ray" x="-10" y = "-224" transform="rotate(135)"></use>
</svg>