<svg width="600" height="600" xmlns="http://www.w3.org/2000/svg">
  <defs>
    <mask id="hole">
      <rect width="100%" height="100%" fill="white"/>
      <circle cx="400" cy="250" r="200" stroke="black"></circle>
    </mask>
    <clipPath id="hole1">
      <circle cx="300" cy="300" r="275" stroke-width="5"></circle>
    </clipPath>
    <g id="ray">
      <rect width="32" height="60" rx="16" fill="#FDCC00" stroke="black" stroke-width="4"/>
    </g>
  </defs>  
  <circle cx="300" cy="300" r="275" stroke="#A69345" fill="#C7B897" stroke-width="5"></circle>
  <circle cx="480" cy="230" r="275" stroke="#383120" fill="#383120" stroke-width="5" clip-path="url(#hole1)"></circle>
  <circle cx="300" cy="300" r="275" stroke="black" fill="#A000" stroke-width="5"></circle>
  <circle cx="300" cy="300" r="170" stroke="black" fill="#AAA0" stroke-width="10"></circle>

  <use href="#ray" x="282" y="40"></use>
  <use href="#ray" x="282" y="40" transform="rotate(45 300 300)" ></use>
  <use href="#ray" x="282" y="40" transform="rotate(90 300 300)" ></use>
  <use href="#ray" x="282" y="40" transform="rotate(135 300 300)" ></use>
  <use href="#ray" x="282" y="40" transform="rotate(180 300 300)" ></use>
  <use href="#ray" x="282" y="40" transform="rotate(225 300 300)" ></use>
  <use href="#ray" x="282" y="40" transform="rotate(270 300 300)" ></use>
  <use href="#ray" x="282" y="40" transform="rotate(315 300 300)" ></use>
</svg>